<svg width="19" height="21" viewBox="0 0 19 21" fill="none" xmlns="http://www.w3.org/2000/svg">
<path d="M1.625 5.25H17.375" stroke="white" stroke-width="2" stroke-linecap="round" stroke-linejoin="round"/>
<path d="M6 5.25V3.5C6 3.03587 6.18437 2.59075 6.51256 2.26256C6.84075 1.93437 7.28587 1.75 7.75 1.75H11.25C11.7141 1.75 12.1592 1.93437 12.4874 2.26256C12.8156 2.59075 13 3.03587 13 3.5V5.25M15.625 5.25V17.5C15.625 17.9641 15.4406 18.4092 15.1124 18.7374C14.7842 19.0656 14.3391 19.25 13.875 19.25H5.125C4.66087 19.25 4.21575 19.0656 3.88756 18.7374C3.55937 18.4092 3.375 17.9641 3.375 17.5V5.25H15.625Z" stroke="white" stroke-width="2" stroke-linecap="round" stroke-linejoin="round"/>
<path d="M7.75 9.625V14.875" stroke="white" stroke-width="2" stroke-linecap="round" stroke-linejoin="round"/>
<path d="M11.25 9.625V14.875" stroke="white" stroke-width="2" stroke-linecap="round" stroke-linejoin="round"/>
</svg>
